<?xml version="1.0" encoding="iso-8859-1"?>
<!-- Uploaded to: SVG Repo, www.svgrepo.com, Generator: SVG Repo Mixer Tools -->
<svg height="800px" width="800px" version="1.1" id="Layer_1" xmlns="http://www.w3.org/2000/svg" xmlns:xlink="http://www.w3.org/1999/xlink" 
	 viewBox="0 0 512.007 512.007" xml:space="preserve">
<circle style="fill:#4AB8A1;" cx="256.003" cy="255.949" r="255.949"/>
<path style="fill:#43A691;" d="M501.267,329.175c-0.252-0.616-0.491-1.248-0.751-1.859c-0.28-0.68-0.544-1.372-0.828-2.051
	c-0.28-0.68-0.54-1.372-0.828-2.051c-0.28-0.68-0.54-1.368-0.828-2.048c-0.276-0.672-0.532-1.352-0.819-2.016
	c-0.28-0.687-0.54-1.388-0.828-2.072c-0.284-0.683-0.548-1.384-0.836-2.063c-0.276-0.68-0.54-1.376-0.828-2.051
	c-0.276-0.68-0.54-1.372-0.824-2.051c-0.28-0.68-0.544-1.376-0.828-2.047c-0.28-0.68-0.544-1.376-0.828-2.055
	c-0.28-0.68-0.544-1.372-0.828-2.047c-0.276-0.668-0.536-1.347-0.815-2.016c-0.284-0.692-0.548-1.399-0.84-2.084
	c-0.28-0.672-0.536-1.364-0.824-2.036c-0.28-0.683-0.548-1.38-0.832-2.063c-0.276-0.68-0.544-1.372-0.828-2.051
	c-0.276-0.68-0.54-1.372-0.828-2.051c-0.276-0.68-0.54-1.372-0.828-2.047c-0.276-0.668-0.532-1.347-0.815-2.016
	c-0.28-0.691-0.548-1.396-0.84-2.084c-0.276-0.683-0.54-1.376-0.828-2.055c-0.276-0.68-0.54-1.372-0.828-2.047
	c-0.276-0.68-0.54-1.376-0.828-2.055c-0.276-0.672-0.536-1.36-0.824-2.036c-0.28-0.683-0.544-1.38-0.828-2.063
	c-0.28-0.668-0.536-1.347-0.819-2.016c-0.28-0.691-0.548-1.396-0.836-2.084c-0.28-0.68-0.544-1.372-0.828-2.051
	c-0.28-0.68-0.544-1.376-0.828-2.047c-0.28-0.68-0.544-1.376-0.828-2.055c-0.28-0.68-0.544-1.372-0.828-2.048
	c-0.28-0.68-0.544-1.372-0.828-2.051c-0.28-0.683-0.54-1.372-0.828-2.051c-0.276-0.664-0.532-1.335-0.811-1.999
	c-0.28-0.696-0.548-1.407-0.844-2.1c-0.276-0.68-0.54-1.372-0.828-2.047c-0.276-0.68-0.54-1.372-0.828-2.051
	c-0.276-0.68-0.54-1.372-0.828-2.047c-0.276-0.68-0.54-1.372-0.824-2.051c-0.28-0.68-0.544-1.372-0.828-2.047
	c-0.276-0.668-0.536-1.347-0.815-2.016c-0.284-0.691-0.548-1.396-0.84-2.084c-0.28-0.68-0.544-1.372-0.828-2.051
	c-0.28-0.676-0.536-1.36-0.824-2.036c-0.284-0.683-0.548-1.38-0.832-2.063c-0.276-0.68-0.544-1.372-0.828-2.051
	c-0.276-0.68-0.544-1.372-0.828-2.047c-0.276-0.668-0.532-1.347-0.815-2.016c-0.28-0.692-0.548-1.396-0.84-2.084
	c-0.276-0.68-0.54-1.372-0.828-2.051c-0.276-0.68-0.54-1.372-0.828-2.047c-0.276-0.68-0.54-1.372-0.828-2.051
	c-0.276-0.68-0.54-1.372-0.828-2.047c-0.276-0.68-0.54-1.372-0.828-2.051c-0.276-0.664-0.528-1.339-0.808-1.999
	c-0.288-0.696-0.555-1.407-0.844-2.096c-0.28-0.68-0.544-1.372-0.828-2.051c-0.28-0.68-0.544-1.372-0.828-2.047
	c-0.28-0.68-0.544-1.372-0.828-2.051c-0.28-0.68-0.544-1.372-0.828-2.047c-0.28-0.68-0.544-1.372-0.828-2.051
	c-0.276-0.668-0.536-1.347-0.819-2.012c-0.28-0.692-0.548-1.396-0.836-2.084c-0.28-0.68-0.54-1.372-0.828-2.047
	c-0.28-0.676-0.54-1.364-0.828-2.036c-0.28-0.683-0.54-1.38-0.828-2.063c-0.28-0.68-0.54-1.372-0.828-2.047
	c-0.28-0.68-0.54-1.372-0.828-2.051c-0.28-0.68-0.54-1.372-0.828-2.047c-0.276-0.668-0.532-1.347-0.815-2.016
	c-0.284-0.692-0.551-1.396-0.84-2.084c-0.28-0.68-0.54-1.372-0.828-2.051c-29.958-72.57-101.452-123.731-184.924-123.731
	c-110.434,0-199.96,89.526-199.96,199.96c0,27.747,5.659,54.165,15.873,78.185c0.28,0.68,0.54,1.376,0.828,2.055
	c0.276,0.664,0.532,1.343,0.815,2.007c0.284,0.696,0.548,1.399,0.84,2.084c0.28,0.68,0.54,1.376,0.828,2.047
	c0.28,0.68,0.54,1.376,0.828,2.055c0.28,0.68,0.54,1.372,0.828,2.047c0.28,0.676,0.536,1.364,0.824,2.036
	c0.284,0.683,0.544,1.38,0.832,2.067c0.28,0.68,0.54,1.372,0.828,2.048c0.276,0.668,0.532,1.347,0.815,2.016
	c0.284,0.692,0.548,1.399,0.84,2.084c0.28,0.68,0.54,1.368,0.828,2.051c0.28,0.68,0.54,1.372,0.828,2.047
	c0.28,0.68,0.54,1.372,0.828,2.051c0.28,0.68,0.54,1.376,0.828,2.047c0.28,0.683,0.54,1.376,0.828,2.055
	c0.276,0.664,0.528,1.339,0.808,1.999c0.284,0.696,0.552,1.407,0.844,2.092c0.28,0.68,0.54,1.376,0.828,2.055
	c0.28,0.68,0.54,1.372,0.828,2.047c0.28,0.68,0.54,1.376,0.828,2.055c0.28,0.68,0.54,1.368,0.828,2.047
	c0.28,0.68,0.54,1.372,0.828,2.051c0.276,0.668,0.532,1.347,0.815,2.012c0.284,0.692,0.548,1.399,0.84,2.084
	c0.28,0.68,0.54,1.372,0.828,2.048c0.28,0.68,0.54,1.372,0.828,2.051c0.28,0.676,0.536,1.364,0.824,2.036
	c0.284,0.687,0.544,1.384,0.832,2.067c0.28,0.68,0.54,1.372,0.828,2.051c0.276,0.668,0.532,1.347,0.815,2.012
	c0.284,0.691,0.548,1.396,0.84,2.084c0.28,0.683,0.54,1.376,0.828,2.051c0.28,0.68,0.54,1.372,0.828,2.051
	c0.28,0.68,0.54,1.376,0.828,2.047c0.28,0.68,0.54,1.376,0.828,2.055c0.28,0.68,0.54,1.372,0.828,2.048
	c0.276,0.668,0.528,1.339,0.808,1.999c0.288,0.696,0.555,1.407,0.848,2.1c0.28,0.68,0.54,1.372,0.828,2.048
	c0.28,0.68,0.54,1.376,0.828,2.055c0.28,0.68,0.54,1.368,0.828,2.047c0.28,0.68,0.54,1.372,0.828,2.051
	c0.28,0.68,0.54,1.372,0.828,2.051c0.28,0.68,0.54,1.368,0.828,2.047c0.276,0.672,0.532,1.352,0.815,2.016
	c0.284,0.691,0.548,1.396,0.84,2.084c0.28,0.676,0.536,1.364,0.824,2.036c0.284,0.687,0.544,1.384,0.832,2.067
	c0.28,0.68,0.54,1.372,0.828,2.051c0.28,0.68,0.54,1.376,0.828,2.048c0.28,0.68,0.54,1.376,0.828,2.055
	c0.276,0.664,0.532,1.347,0.815,2.012c0.284,0.692,0.548,1.396,0.84,2.084c0.28,0.68,0.54,1.376,0.828,2.048
	c0.28,0.68,0.54,1.376,0.828,2.055c0.28,0.68,0.54,1.372,0.828,2.047c0.28,0.676,0.536,1.368,0.824,2.04
	c0.284,0.68,0.544,1.376,0.832,2.063c0.276,0.668,0.532,1.347,0.815,2.012c0.284,0.691,0.548,1.396,0.84,2.084
	c0.28,0.68,0.54,1.376,0.828,2.048c0.28,0.68,0.54,1.376,0.828,2.055c0.28,0.68,0.54,1.372,0.828,2.047
	c0.28,0.68,0.54,1.376,0.828,2.055c0.28,0.68,0.54,1.372,0.828,2.047c0.28,0.676,0.536,1.364,0.824,2.036
	c0.276,0.672,0.536,1.36,0.819,2.028c0.284,0.696,0.548,1.399,0.84,2.084c0.28,0.68,0.54,1.372,0.828,2.051
	c0.192,0.468,0.38,0.94,0.572,1.411c37.109,20.944,79.933,32.95,125.579,32.95C371.9,511.899,469.762,434.843,501.267,329.175z"/>
<g>
	<path style="fill:#CCCCCC;" d="M103.845,511.899c-2.047,0-4.095-0.776-5.655-2.344c-3.123-3.123-3.123-8.186,0-11.31l87.983-87.983
		c3.119-3.119,8.19-3.119,11.31,0c3.123,3.123,3.123,8.186,0,11.31L109.5,509.556C107.941,511.124,105.892,511.899,103.845,511.899z
		"/>
	<path style="fill:#CCCCCC;" d="M407.786,511.899c2.048,0,4.091-0.776,5.655-2.344c3.123-3.123,3.123-8.186,0-11.31l-87.983-87.983
		c-3.119-3.119-8.19-3.119-11.31,0c-3.123,3.123-3.123,8.186,0,11.31l87.983,87.983
		C403.695,511.124,405.738,511.899,407.786,511.899z"/>
</g>
<circle style="fill:#CC584C;" cx="256.003" cy="255.949" r="199.958"/>
<path style="fill:#F5F5F5;" d="M256.003,439.914c-101.436,0-183.964-82.528-183.964-183.964S154.567,71.986,256.003,71.986
	s183.964,82.528,183.964,183.964S357.44,439.914,256.003,439.914z"/>
<path style="fill:#CC584C;" d="M256.003,415.918c-88.206,0-159.969-71.761-159.969-159.969S167.797,95.981,256.003,95.981
	c88.21,0,159.969,71.761,159.969,159.969S344.214,415.918,256.003,415.918z"/>
<path style="fill:#F5F5F5;" d="M256.003,399.922c-79.388,0-143.972-64.583-143.972-143.972s64.583-143.972,143.972-143.972
	c79.392,0,143.972,64.583,143.972,143.972S335.388,399.922,256.003,399.922z"/>
<path style="fill:#CC584C;" d="M256.003,375.926c-66.155,0-119.976-53.822-119.976-119.976s53.821-119.977,119.976-119.977
	s119.976,53.822,119.976,119.976S322.159,375.926,256.003,375.926z"/>
<path style="fill:#F5F5F5;" d="M256.003,359.929c-57.333,0-103.98-46.647-103.98-103.98s46.647-103.98,103.98-103.98
	s103.98,46.647,103.98,103.98S313.336,359.929,256.003,359.929z"/>
<path style="fill:#CC584C;" d="M256.003,295.942c-22.052,0-39.992-17.937-39.992-39.992c0-22.052,17.941-39.992,39.992-39.992
	s39.992,17.941,39.992,39.992C295.995,278.005,278.054,295.942,256.003,295.942z"/>
<g>
	<path style="opacity:0.3;fill:#242424;enable-background:new    ;" d="M395.616,112.858L258.343,250.295
		c-3.123,3.128-3.119,8.19,0.004,11.314c1.564,1.564,3.607,2.34,5.655,2.34s4.091-0.784,5.659-2.344L406.61,124.492
		C403.094,120.473,399.435,116.586,395.616,112.858z"/>
	<g style="opacity:0.3;">
		<path style="fill:#242424;" d="M403.786,151.97c0-4.415-3.583-7.999-7.999-7.999h-23.995v-23.996c0-4.415-3.583-7.999-7.999-7.999
			s-7.999,3.583-7.999,7.999v31.994c0,4.415,3.583,7.999,7.999,7.999h3.999h27.994C400.203,159.969,403.786,156.385,403.786,151.97z
			"/>
		<path style="fill:#242424;" d="M395.787,113.021c-5.079-4.963-10.418-9.647-15.997-14.049v29.003c0,4.415,3.583,7.999,7.999,7.999
			h3.999h24.184c-4.184-5.575-8.674-10.898-13.414-15.997h-6.771C395.787,119.976,395.787,113.021,395.787,113.021z"/>
	</g>
</g>
<path style="fill:#E6E6E6;" d="M256.003,263.948c-2.047,0-4.091-0.776-5.655-2.34c-3.123-3.123-3.128-8.186-0.004-11.314
	L406.126,94.325c3.123-3.119,8.186-3.128,11.314-0.004c3.123,3.123,3.123,8.186,0.004,11.314l-155.781,155.97
	C260.095,263.165,258.051,263.948,256.003,263.948z"/>
<path style="fill:#CCCCCC;" d="M406.126,94.325l-155.781,155.97c-2.247,2.247-2.847,5.49-1.859,8.298L414.576,92.502
	C411.729,91.447,408.413,92.046,406.126,94.325z"/>
<path style="fill:#406A80;" d="M419.783,131.974h-31.994c-4.415,0-7.999-3.583-7.999-7.999V91.982c0-4.415,3.583-7.999,7.999-7.999
	c4.415,0,7.999,3.583,7.999,7.999v23.996h23.996c4.415,0,7.999,3.583,7.999,7.999C427.782,128.391,424.198,131.974,419.783,131.974z
	"/>
<path style="fill:#395F73;" d="M383.79,123.976V91.982c0-3.724,2.556-6.823,5.999-7.714c-0.644-0.168-1.304-0.284-1.999-0.284
	c-4.415,0-7.999,3.583-7.999,7.999v31.994c0,4.415,3.583,7.999,7.999,7.999h3.999C387.378,131.974,383.79,128.391,383.79,123.976z"
	/>
<path style="fill:#406A80;" d="M395.787,155.969h-31.994c-4.415,0-7.999-3.583-7.999-7.999v-31.994c0-4.415,3.583-7.999,7.999-7.999
	s7.999,3.583,7.999,7.999v23.996h23.996c4.415,0,7.999,3.583,7.999,7.999C403.786,152.386,400.203,155.969,395.787,155.969z"/>
<path style="fill:#395F73;" d="M359.795,147.971v-31.994c0-3.724,2.556-6.823,5.999-7.714c-0.644-0.168-1.304-0.284-1.999-0.284
	c-4.415,0-7.999,3.583-7.999,7.999v31.994c0,4.415,3.583,7.999,7.999,7.999h3.999C363.382,155.969,359.795,152.387,359.795,147.971z
	"/>
</svg>